<svg width="48" height="48" viewBox="0 0 48 48" fill="none" xmlns="http://www.w3.org/2000/svg">
<mask id="mask0_2139_74" style="mask-type:luminance" maskUnits="userSpaceOnUse" x="0" y="0" width="48" height="48">
<path d="M0 0H48V48H0V0Z" fill="white"/>
</mask>
<g mask="url(#mask0_2139_74)">
<path d="M8.35938 9.26855C9.15222 8.36112 10.017 7.51911 10.9452 6.75071" stroke="#9DFF3A" stroke-width="1.5" stroke-miterlimit="10" stroke-linecap="round" stroke-linejoin="round"/>
<path d="M3.41016 18.9504C3.96148 16.5539 4.90595 14.2652 6.20522 12.1773" stroke="#9DFF3A" stroke-width="1.5" stroke-miterlimit="10" stroke-linecap="round" stroke-linejoin="round"/>
<path d="M10.8066 41.1333C5.93738 37.0359 2.84082 30.8814 2.84082 24C2.84082 23.7386 2.84532 23.4783 2.85413 23.2192" stroke="#9DFF3A" stroke-width="1.5" stroke-miterlimit="10" stroke-linecap="round" stroke-linejoin="round"/>
<path d="M35.8398 43.5439C32.649 45.3235 28.9765 46.3369 25.0686 46.3369C21.1739 46.3369 17.5133 45.3304 14.3301 43.562" stroke="#9DFF3A" stroke-width="1.5" stroke-miterlimit="10" stroke-linecap="round" stroke-linejoin="round"/>
<path d="M43.917 12.1537C46.0588 15.5875 47.297 19.6484 47.297 23.9999C47.297 30.8712 44.2095 37.0178 39.3525 41.1152" stroke="#9DFF3A" stroke-width="1.5" stroke-miterlimit="10" stroke-linecap="round" stroke-linejoin="round"/>
<path d="M38.9951 6.58923C39.8177 7.25454 40.5921 7.97725 41.3125 8.75195" stroke="#9DFF3A" stroke-width="1.5" stroke-miterlimit="10" stroke-linecap="round" stroke-linejoin="round"/>
<path d="M14.4697 4.36133C17.6203 2.64055 21.2313 1.66302 25.0694 1.66302C28.809 1.66302 32.3329 2.59105 35.4256 4.23036" stroke="#9DFF3A" stroke-width="1.5" stroke-miterlimit="10" stroke-linecap="round" stroke-linejoin="round"/>
<path d="M26.9297 9.47144C29.4333 7.9134 32.1912 6.68884 35.155 5.87144" stroke="#9DFF3A" stroke-width="1.5" stroke-miterlimit="10" stroke-linecap="round" stroke-linejoin="round"/>
<path d="M17.8223 18.0847C19.4296 15.8026 21.3318 13.7432 23.4793 11.9601" stroke="#9DFF3A" stroke-width="1.5" stroke-miterlimit="10" stroke-linecap="round" stroke-linejoin="round"/>
<path d="M12.2634 40.2014C11.4633 33.6596 12.7283 27.2742 15.5859 21.7639" stroke="#9DFF3A" stroke-width="1.5" stroke-miterlimit="10" stroke-linecap="round" stroke-linejoin="round"/>
<path d="M23.2073 9.47168C20.6191 7.86096 17.759 6.60668 14.6807 5.79012" stroke="#9DFF3A" stroke-width="1.5" stroke-miterlimit="10" stroke-linecap="round" stroke-linejoin="round"/>
<path d="M35.3697 23.4639C33.3924 19.025 30.4133 15.0761 26.6582 11.9603" stroke="#9DFF3A" stroke-width="1.5" stroke-miterlimit="10" stroke-linecap="round" stroke-linejoin="round"/>
<path d="M37.7716 31.7161C37.5603 30.2883 37.2516 28.8767 36.8477 27.491" stroke="#9DFF3A" stroke-width="1.5" stroke-miterlimit="10" stroke-linecap="round" stroke-linejoin="round"/>
<path d="M37.8613 40.3079C38.0476 38.8264 38.1296 37.3337 38.1068 35.8408" stroke="#9DFF3A" stroke-width="1.5" stroke-miterlimit="10" stroke-linecap="round" stroke-linejoin="round"/>
<path d="M14.6131 19.4768C11.411 19.4605 8.16055 19.8041 4.91211 20.5371" stroke="#9DFF3A" stroke-width="1.5" stroke-miterlimit="10" stroke-linecap="round" stroke-linejoin="round"/>
<path d="M34.3255 24.3989C29.5584 21.8997 24.3207 20.2865 18.8721 19.7116" stroke="#9DFF3A" stroke-width="1.5" stroke-miterlimit="10" stroke-linecap="round" stroke-linejoin="round"/>
<path d="M45.503 32.8054C43.2487 30.4519 40.736 28.3602 38.0127 26.57" stroke="#9DFF3A" stroke-width="1.5" stroke-miterlimit="10" stroke-linecap="round" stroke-linejoin="round"/>
<path d="M37.2578 23.5872C39.3877 20.1586 41.0269 16.4485 42.1275 12.5652" stroke="#9DFF3A" stroke-width="1.5" stroke-miterlimit="10" stroke-linecap="round" stroke-linejoin="round"/>
<path d="M14.6123 41.6816C22.6484 38.9102 29.6806 33.8074 34.8278 27.1002" stroke="#9DFF3A" stroke-width="1.5" stroke-miterlimit="10" stroke-linecap="round" stroke-linejoin="round"/>
<path d="M25.0683 12.6738C23.8895 12.6738 22.9307 11.7103 22.9307 10.5257C22.9307 9.3413 23.8895 8.37773 25.0683 8.37773C26.247 8.37773 27.2059 9.3413 27.2059 10.5257C27.2059 11.7103 26.247 12.6738 25.0683 12.6738Z" stroke="#9DFF3A" stroke-width="1.5" stroke-miterlimit="10" stroke-linecap="round" stroke-linejoin="round"/>
<path d="M16.7499 22.1118C15.5712 22.1118 14.6123 21.1482 14.6123 19.9637C14.6123 18.7793 15.5712 17.8156 16.7499 17.8156C17.9286 17.8156 18.8875 18.7793 18.8875 19.9637C18.8875 21.1482 17.9286 22.1118 16.7499 22.1118Z" stroke="#9DFF3A" stroke-width="1.5" stroke-miterlimit="10" stroke-linecap="round" stroke-linejoin="round"/>
<path d="M36.1913 27.595C35.0126 27.595 34.0537 26.6313 34.0537 25.4469C34.0537 24.2624 35.0126 23.2988 36.1913 23.2988C37.37 23.2988 38.3289 24.2624 38.3289 25.4469C38.3289 26.6313 37.37 27.595 36.1913 27.595Z" stroke="#9DFF3A" stroke-width="1.5" stroke-miterlimit="10" stroke-linecap="round" stroke-linejoin="round"/>
<path d="M12.5829 44.4734C11.4042 44.4734 10.4453 43.5098 10.4453 42.3253C10.4453 41.1409 11.4042 40.1773 12.5829 40.1773C13.7616 40.1773 14.7206 41.1409 14.7206 42.3253C14.7206 43.5098 13.7616 44.4734 12.5829 44.4734Z" stroke="#9DFF3A" stroke-width="1.5" stroke-miterlimit="10" stroke-linecap="round" stroke-linejoin="round"/>
<path d="M37.6776 44.5957C36.4989 44.5957 35.54 43.632 35.54 42.4476C35.54 41.2632 36.4989 40.2995 37.6776 40.2995C38.8564 40.2995 39.8153 41.2632 39.8153 42.4476C39.8153 43.632 38.8564 44.5957 37.6776 44.5957Z" stroke="#9DFF3A" stroke-width="1.5" stroke-miterlimit="10" stroke-linecap="round" stroke-linejoin="round"/>
<path d="M42.6611 12.5649C41.4824 12.5649 40.5234 11.6013 40.5234 10.4168C40.5234 9.23241 41.4824 8.26875 42.6611 8.26875C43.8398 8.26875 44.7987 9.23241 44.7987 10.4168C44.7987 11.6013 43.8398 12.5649 42.6611 12.5649Z" stroke="#9DFF3A" stroke-width="1.5" stroke-miterlimit="10" stroke-linecap="round" stroke-linejoin="round"/>
<path d="M37.2343 7.52051C36.0556 7.52051 35.0967 6.55695 35.0967 5.37241C35.0967 4.18798 36.0556 3.22441 37.2343 3.22441C38.413 3.22441 39.372 4.18798 39.372 5.37241C39.372 6.55695 38.413 7.52051 37.2343 7.52051Z" stroke="#9DFF3A" stroke-width="1.5" stroke-miterlimit="10" stroke-linecap="round" stroke-linejoin="round"/>
<path d="M12.5829 7.52051C11.4042 7.52051 10.4453 6.55695 10.4453 5.37241C10.4453 4.18798 11.4042 3.22441 12.5829 3.22441C13.7616 3.22441 14.7206 4.18798 14.7206 5.37241C14.7206 6.55695 13.7616 7.52051 12.5829 7.52051Z" stroke="#9DFF3A" stroke-width="1.5" stroke-miterlimit="10" stroke-linecap="round" stroke-linejoin="round"/>
<path d="M2.84072 23.2188C1.662 23.2188 0.703125 22.2552 0.703125 21.0707C0.703125 19.8862 1.662 18.9227 2.84072 18.9227C4.01944 18.9227 4.97831 19.8862 4.97831 21.0707C4.97831 22.2552 4.01944 23.2188 2.84072 23.2188Z" stroke="#9DFF3A" stroke-width="1.5" stroke-miterlimit="10" stroke-linecap="round" stroke-linejoin="round"/>
</g>
</svg>
