<svg width="26" height="22" viewBox="0 0 26 22" fill="none" xmlns="http://www.w3.org/2000/svg">
<path d="M22.2506 5.68226C22.1771 5.76061 22.0851 5.82154 21.984 5.85636C21.8828 5.89989 21.7725 5.9173 21.6622 5.9173H0.835479C0.0998792 5.9173 -0.277116 5.0468 0.237804 4.5245L3.65835 1.08603C3.73191 1.00768 3.82386 0.946746 3.9342 0.903221C4.03534 0.859696 4.14568 0.842285 4.25602 0.842285H25.1655C25.9102 0.842285 26.2781 1.72149 25.7539 2.24379L22.2506 5.68226ZM22.2506 21.0553C22.0943 21.2033 21.8828 21.2903 21.6622 21.2903H0.835479C0.0998792 21.2903 -0.277116 20.4372 0.237804 19.9323L3.65835 16.5722C3.73191 16.4939 3.83305 16.4329 3.9342 16.3981C4.03534 16.3546 4.14568 16.3372 4.25602 16.3372H25.1655C25.9102 16.3372 26.2781 17.199 25.7539 17.7039L22.2506 21.0553ZM22.2506 8.82476C22.0943 8.67678 21.8828 8.58973 21.6622 8.58973H0.835479C0.0998792 8.58973 -0.277116 9.44282 0.237804 9.94771L3.65835 13.3078C3.73191 13.3862 3.83305 13.4471 3.9342 13.4819C4.03534 13.5255 4.14568 13.5429 4.25602 13.5429H25.1655C25.9102 13.5429 26.2781 12.6811 25.7539 12.1762L22.2506 8.82476Z" fill="url(#paint0_linear_2107_178)"/>
<defs>
<linearGradient id="paint0_linear_2107_178" x1="1.58985" y1="21.5455" x2="23.1283" y2="-0.604338" gradientUnits="userSpaceOnUse">
<stop stop-color="#CF41E8"/>
<stop offset="1" stop-color="#10F2B0"/>
</linearGradient>
</defs>
</svg>
